<svg width="38" height="38" viewBox="0 0 38 38" fill="none" xmlns="http://www.w3.org/2000/svg">
<g filter="url(#filter0_d_3945_201)">
<rect x="1" width="36" height="36" rx="5" fill="#F6F8F8"/>
</g>
<path d="M19 28C17.6167 28 16.3167 27.7375 15.1 27.2125C13.8833 26.6875 12.825 25.975 11.925 25.075C11.025 24.175 10.3125 23.1167 9.7875 21.9C9.2625 20.6833 9 19.3833 9 18C9 16.6167 9.2625 15.3167 9.7875 14.1C10.3125 12.8833 11.025 11.825 11.925 10.925C12.825 10.025 13.8833 9.3125 15.1 8.7875C16.3167 8.2625 17.6167 8 19 8C20.3833 8 21.6833 8.2625 22.9 8.7875C24.1167 9.3125 25.175 10.025 26.075 10.925C26.975 11.825 27.6875 12.8833 28.2125 14.1C28.7375 15.3167 29 16.6167 29 18C29 19.3833 28.7375 20.6833 28.2125 21.9C27.6875 23.1167 26.975 24.175 26.075 25.075C25.175 25.975 24.1167 26.6875 22.9 27.2125C21.6833 27.7375 20.3833 28 19 28ZM19 26C21.2333 26 23.125 25.225 24.675 23.675C26.225 22.125 27 20.2333 27 18C27 15.7667 26.225 13.875 24.675 12.325C23.125 10.775 21.2333 10 19 10C16.7667 10 14.875 10.775 13.325 12.325C11.775 13.875 11 15.7667 11 18C11 20.2333 11.775 22.125 13.325 23.675C14.875 25.225 16.7667 26 19 26ZM19 24C17.3333 24 15.9167 23.4167 14.75 22.25C13.5833 21.0833 13 19.6667 13 18C13 16.3333 13.5833 14.9167 14.75 13.75C15.9167 12.5833 17.3333 12 19 12C20.6667 12 22.0833 12.5833 23.25 13.75C24.4167 14.9167 25 16.3333 25 18C25 19.6667 24.4167 21.0833 23.25 22.25C22.0833 23.4167 20.6667 24 19 24ZM19 22C20.1 22 21.0417 21.6083 21.825 20.825C22.6083 20.0417 23 19.1 23 18C23 16.9 22.6083 15.9583 21.825 15.175C21.0417 14.3917 20.1 14 19 14C17.9 14 16.9583 14.3917 16.175 15.175C15.3917 15.9583 15 16.9 15 18C15 19.1 15.3917 20.0417 16.175 20.825C16.9583 21.6083 17.9 22 19 22ZM19 20C18.45 20 17.9792 19.8042 17.5875 19.4125C17.1958 19.0208 17 18.55 17 18C17 17.45 17.1958 16.9792 17.5875 16.5875C17.9792 16.1958 18.45 16 19 16C19.55 16 20.0208 16.1958 20.4125 16.5875C20.8042 16.9792 21 17.45 21 18C21 18.55 20.8042 19.0208 20.4125 19.4125C20.0208 19.8042 19.55 20 19 20Z" fill="#313265"/>
<defs>
<filter id="filter0_d_3945_201" x="0" y="0" width="38" height="38" filterUnits="userSpaceOnUse" color-interpolation-filters="sRGB">
<feFlood flood-opacity="0" result="BackgroundImageFix"/>
<feColorMatrix in="SourceAlpha" type="matrix" values="0 0 0 0 0 0 0 0 0 0 0 0 0 0 0 0 0 0 127 0" result="hardAlpha"/>
<feOffset dy="1"/>
<feGaussianBlur stdDeviation="0.5"/>
<feComposite in2="hardAlpha" operator="out"/>
<feColorMatrix type="matrix" values="0 0 0 0 0 0 0 0 0 0 0 0 0 0 0 0 0 0 0.25 0"/>
<feBlend mode="normal" in2="BackgroundImageFix" result="effect1_dropShadow_3945_201"/>
<feBlend mode="normal" in="SourceGraphic" in2="effect1_dropShadow_3945_201" result="shape"/>
</filter>
</defs>
</svg>
