<svg width="38" height="38" viewBox="0 0 38 38" fill="none" xmlns="http://www.w3.org/2000/svg">
<g filter="url(#filter0_d_3965_1333)">
<rect x="1" width="36" height="36" rx="5" fill="#F46F22"/>
</g>
<path d="M29 17.0857V18.0057C28.9988 20.1621 28.3005 22.2604 27.0093 23.9875C25.7182 25.7147 23.9033 26.9782 21.8354 27.5896C19.7674 28.201 17.5573 28.1276 15.5345 27.3803C13.5117 26.633 11.7847 25.2518 10.611 23.4428C9.43727 21.6338 8.87979 19.4938 9.02168 17.342C9.16356 15.1903 9.99721 13.142 11.3983 11.5028C12.7994 9.86354 14.6928 8.72111 16.7962 8.24587C18.8996 7.77063 21.1003 7.98806 23.07 8.86572" stroke="white" stroke-width="2" stroke-linecap="round" stroke-linejoin="round"/>
<path d="M29 10.0057L19 20.0157L16 17.0157" stroke="white" stroke-width="2" stroke-linecap="round" stroke-linejoin="round"/>
<defs>
<filter id="filter0_d_3965_1333" x="0" y="0" width="38" height="38" filterUnits="userSpaceOnUse" color-interpolation-filters="sRGB">
<feFlood flood-opacity="0" result="BackgroundImageFix"/>
<feColorMatrix in="SourceAlpha" type="matrix" values="0 0 0 0 0 0 0 0 0 0 0 0 0 0 0 0 0 0 127 0" result="hardAlpha"/>
<feOffset dy="1"/>
<feGaussianBlur stdDeviation="0.5"/>
<feComposite in2="hardAlpha" operator="out"/>
<feColorMatrix type="matrix" values="0 0 0 0 0 0 0 0 0 0 0 0 0 0 0 0 0 0 0.25 0"/>
<feBlend mode="normal" in2="BackgroundImageFix" result="effect1_dropShadow_3965_1333"/>
<feBlend mode="normal" in="SourceGraphic" in2="effect1_dropShadow_3965_1333" result="shape"/>
</filter>
</defs>
</svg>
