<svg xmlns="http://www.w3.org/2000/svg" width="38" height="38" viewBox="0 0 38 38" fill="none">
  <g filter="url(#filter0_d_146_367)">
    <rect x="1" width="36" height="36" rx="5" fill="#F46F22"/>
  </g>
  <path d="M27.25 10.5V14.25H19.75V10.5H27.25ZM27.25 9H19.75C19.3522 9 18.9706 9.15804 18.6893 9.43934C18.408 9.72064 18.25 10.1022 18.25 10.5V14.25C18.25 14.6478 18.408 15.0294 18.6893 15.3107C18.9706 15.592 19.3522 15.75 19.75 15.75H27.25C27.6478 15.75 28.0294 15.592 28.3107 15.3107C28.592 15.0294 28.75 14.6478 28.75 14.25V10.5C28.75 10.1022 28.592 9.72064 28.3107 9.43934C28.0294 9.15804 27.6478 9 27.25 9Z" fill="white"/>
  <path d="M15.25 10.5V14.25H11.5V10.5H15.25ZM15.25 9H11.5C11.1022 9 10.7206 9.15804 10.4393 9.43934C10.158 9.72064 10 10.1022 10 10.5V14.25C10 14.6478 10.158 15.0294 10.4393 15.3107C10.7206 15.592 11.1022 15.75 11.5 15.75H15.25C15.6478 15.75 16.0294 15.592 16.3107 15.3107C16.592 15.0294 16.75 14.6478 16.75 14.25V10.5C16.75 10.1022 16.592 9.72064 16.3107 9.43934C16.0294 9.15804 15.6478 9 15.25 9Z" fill="white"/>
  <path d="M19 18.75V24.75H11.5V18.75H19ZM19 17.25H11.5C11.1022 17.25 10.7206 17.408 10.4393 17.6893C10.158 17.9706 10 18.3522 10 18.75V24.75C10 25.1478 10.158 25.5294 10.4393 25.8107C10.7206 26.092 11.1022 26.25 11.5 26.25H19C19.3978 26.25 19.7794 26.092 20.0607 25.8107C20.342 25.5294 20.5 25.1478 20.5 24.75V18.75C20.5 18.3522 20.342 17.9706 20.0607 17.6893C19.7794 17.408 19.3978 17.25 19 17.25Z" fill="white"/>
  <path d="M27.25 18.75V22.5H23.5V18.75H27.25ZM27.25 17.25H23.5C23.1022 17.25 22.7206 17.408 22.4393 17.6893C22.158 17.9706 22 18.3522 22 18.75V22.5C22 22.8978 22.158 23.2794 22.4393 23.5607C22.7206 23.842 23.1022 24 23.5 24H27.25C27.6478 24 28.0294 23.842 28.3107 23.5607C28.592 23.2794 28.75 22.8978 28.75 22.5V18.75C28.75 18.3522 28.592 17.9706 28.3107 17.6893C28.0294 17.408 27.6478 17.25 27.25 17.25Z" fill="white"/>
  <defs>
    <filter id="filter0_d_146_367" x="0" y="0" width="38" height="38" filterUnits="userSpaceOnUse" color-interpolation-filters="sRGB">
      <feFlood flood-opacity="0" result="BackgroundImageFix"/>
      <feColorMatrix in="SourceAlpha" type="matrix" values="0 0 0 0 0 0 0 0 0 0 0 0 0 0 0 0 0 0 127 0" result="hardAlpha"/>
      <feOffset dy="1"/>
      <feGaussianBlur stdDeviation="0.5"/>
      <feComposite in2="hardAlpha" operator="out"/>
      <feColorMatrix type="matrix" values="0 0 0 0 0 0 0 0 0 0 0 0 0 0 0 0 0 0 0.25 0"/>
      <feBlend mode="normal" in2="BackgroundImageFix" result="effect1_dropShadow_146_367"/>
      <feBlend mode="normal" in="SourceGraphic" in2="effect1_dropShadow_146_367" result="shape"/>
    </filter>
  </defs>
</svg>