<svg width="24" height="24" viewBox="0 0 24 24" fill="none" xmlns="http://www.w3.org/2000/svg">
<path d="M5 8H6.55556H19" stroke="#313265" stroke-width="2" stroke-linecap="round" stroke-linejoin="round"/>
<path d="M17 8V18.5C17 18.8978 16.8495 19.2794 16.5816 19.5607C16.3137 19.842 15.9503 20 15.5714 20H8.42857C8.04969 20 7.68633 19.842 7.41842 19.5607C7.15051 19.2794 7 18.8978 7 18.5V8M9.14286 8V6.5C9.14286 6.10218 9.29337 5.72064 9.56128 5.43934C9.82919 5.15804 10.1925 5 10.5714 5H13.4286C13.8075 5 14.1708 5.15804 14.4387 5.43934C14.7066 5.72064 14.8571 6.10218 14.8571 6.5V8" stroke="#313265" stroke-width="2" stroke-linecap="round" stroke-linejoin="round"/>
</svg>
