<svg xmlns="http://www.w3.org/2000/svg" width="48" height="48" viewBox="0 0 48 48" fill="none">
  <g filter="url(#filter0_d_4321_47676)">
    <path d="M16 8C14.9 8 14 8.9 14 10V38C14 39.1 14.9 40 16 40H36C37.1 40 38 39.1 38 38V16L30 8H16Z" fill="#D9D9D9"/>
  </g>
  <path d="M32 16H38L30 8V14C30 15.1 30.9 16 32 16Z" fill="#B0B7BD"/>
  <path d="M38 22L32 16H38V22Z" fill="#CAD1D8"/>
  <path d="M34 34C34 34.55 33.55 35 33 35H11C10.45 35 10 34.55 10 34V24C10 23.45 10.45 23 11 23H33C33.55 23 34 23.45 34 24V34Z" fill="#2985C1"/>
  <path d="M33 35H14V36H33C33.55 36 34 35.55 34 35V34C34 34.55 33.55 35 33 35Z" fill="#CAD1D8"/>
  <path d="M13.5605 33.0001V27.2401H15.4245C15.4699 27.2401 15.5632 27.2415 15.7045 27.2441C15.8459 27.2468 15.9819 27.2561 16.1125 27.2721C16.5765 27.3281 16.9699 27.4895 17.2925 27.7561C17.6152 28.0228 17.8605 28.3615 18.0285 28.7721C18.1965 29.1828 18.2805 29.6321 18.2805 30.1201C18.2805 30.6081 18.1965 31.0575 18.0285 31.4681C17.8605 31.8788 17.6152 32.2175 17.2925 32.4841C16.9699 32.7508 16.5765 32.9121 16.1125 32.9681C15.9819 32.9841 15.8459 32.9935 15.7045 32.9961C15.5632 32.9988 15.4699 33.0001 15.4245 33.0001H13.5605ZM14.6645 31.9761H15.4245C15.4965 31.9761 15.5939 31.9748 15.7165 31.9721C15.8392 31.9668 15.9499 31.9548 16.0485 31.9361C16.2992 31.8855 16.5032 31.7681 16.6605 31.5841C16.8205 31.4001 16.9379 31.1788 17.0125 30.9201C17.0899 30.6615 17.1285 30.3948 17.1285 30.1201C17.1285 29.8321 17.0885 29.5588 17.0085 29.3001C16.9312 29.0415 16.8125 28.8228 16.6525 28.6441C16.4925 28.4655 16.2912 28.3521 16.0485 28.3041C15.9499 28.2828 15.8392 28.2708 15.7165 28.2681C15.5939 28.2655 15.4965 28.2641 15.4245 28.2641H14.6645V31.9761Z" fill="white"/>
  <path d="M21.7122 33.1201C21.1362 33.1201 20.6389 32.9948 20.2202 32.7441C19.8042 32.4935 19.4829 32.1428 19.2562 31.6921C19.0322 31.2415 18.9202 30.7175 18.9202 30.1201C18.9202 29.5228 19.0322 28.9988 19.2562 28.5481C19.4829 28.0975 19.8042 27.7468 20.2202 27.4961C20.6389 27.2455 21.1362 27.1201 21.7122 27.1201C22.2882 27.1201 22.7842 27.2455 23.2002 27.4961C23.6189 27.7468 23.9402 28.0975 24.1642 28.5481C24.3909 28.9988 24.5042 29.5228 24.5042 30.1201C24.5042 30.7175 24.3909 31.2415 24.1642 31.6921C23.9402 32.1428 23.6189 32.4935 23.2002 32.7441C22.7842 32.9948 22.2882 33.1201 21.7122 33.1201ZM21.7122 32.0961C22.0776 32.1015 22.3816 32.0228 22.6242 31.8601C22.8669 31.6975 23.0482 31.4668 23.1682 31.1681C23.2909 30.8695 23.3522 30.5201 23.3522 30.1201C23.3522 29.7201 23.2909 29.3735 23.1682 29.0801C23.0482 28.7868 22.8669 28.5588 22.6242 28.3961C22.3816 28.2335 22.0776 28.1495 21.7122 28.1441C21.3469 28.1388 21.0429 28.2175 20.8002 28.3801C20.5576 28.5428 20.3749 28.7735 20.2522 29.0721C20.1322 29.3708 20.0722 29.7201 20.0722 30.1201C20.0722 30.5201 20.1322 30.8668 20.2522 31.1601C20.3749 31.4535 20.5576 31.6815 20.8002 31.8441C21.0429 32.0068 21.3469 32.0908 21.7122 32.0961Z" fill="white"/>
  <path d="M27.7747 33.1201C27.1987 33.1201 26.7014 32.9948 26.2827 32.7441C25.8667 32.4935 25.5454 32.1428 25.3187 31.6921C25.0947 31.2415 24.9827 30.7175 24.9827 30.1201C24.9827 29.5228 25.0947 28.9988 25.3187 28.5481C25.5454 28.0975 25.8667 27.7468 26.2827 27.4961C26.7014 27.2455 27.1987 27.1201 27.7747 27.1201C28.4361 27.1201 28.9907 27.2841 29.4387 27.6121C29.8894 27.9401 30.2067 28.3841 30.3907 28.9441L29.2947 29.2481C29.1881 28.8988 29.0081 28.6281 28.7547 28.4361C28.5014 28.2415 28.1747 28.1441 27.7747 28.1441C27.4094 28.1441 27.1041 28.2255 26.8587 28.3881C26.6161 28.5508 26.4334 28.7801 26.3107 29.0761C26.1881 29.3721 26.1267 29.7201 26.1267 30.1201C26.1267 30.5201 26.1881 30.8681 26.3107 31.1641C26.4334 31.4601 26.6161 31.6895 26.8587 31.8521C27.1041 32.0148 27.4094 32.0961 27.7747 32.0961C28.1747 32.0961 28.5014 31.9988 28.7547 31.8041C29.0081 31.6095 29.1881 31.3388 29.2947 30.9921L30.3907 31.2961C30.2067 31.8561 29.8894 32.3001 29.4387 32.6281C28.9907 32.9561 28.4361 33.1201 27.7747 33.1201Z" fill="white"/>
  <defs>
    <filter id="filter0_d_4321_47676" x="13" y="8" width="26" height="34" filterUnits="userSpaceOnUse" color-interpolation-filters="sRGB">
      <feFlood flood-opacity="0" result="BackgroundImageFix"/>
      <feColorMatrix in="SourceAlpha" type="matrix" values="0 0 0 0 0 0 0 0 0 0 0 0 0 0 0 0 0 0 127 0" result="hardAlpha"/>
      <feOffset dy="1"/>
      <feGaussianBlur stdDeviation="0.5"/>
      <feComposite in2="hardAlpha" operator="out"/>
      <feColorMatrix type="matrix" values="0 0 0 0 0 0 0 0 0 0 0 0 0 0 0 0 0 0 0.25 0"/>
      <feBlend mode="normal" in2="BackgroundImageFix" result="effect1_dropShadow_4321_47676"/>
      <feBlend mode="normal" in="SourceGraphic" in2="effect1_dropShadow_4321_47676" result="shape"/>
    </filter>
  </defs>
</svg>