<svg xmlns="http://www.w3.org/2000/svg" width="51" height="18" viewBox="0 0 51 18" fill="none">
  <path d="M9 16.2188H17" stroke="#313265" stroke-width="2" stroke-linecap="round" stroke-linejoin="round"/>
  <path d="M13 1.55228C13.3536 1.19866 13.8332 1 14.3333 1C14.581 1 14.8262 1.04877 15.0549 1.14353C15.2837 1.2383 15.4916 1.37719 15.6667 1.55228C15.8418 1.72738 15.9807 1.93525 16.0754 2.16402C16.1702 2.3928 16.219 2.638 16.219 2.88562C16.219 3.13324 16.1702 3.37844 16.0754 3.60721C15.9807 3.83599 15.8418 4.04386 15.6667 4.21895L4.55556 15.3301L1 16.219L1.88889 12.6634L13 1.55228Z" stroke="#313265" stroke-width="2" stroke-linecap="round" stroke-linejoin="round"/>
  <path d="M40 3C43.79 3 47.17 5.13 48.82 8.5C47.17 11.87 43.79 14 40 14C36.21 14 32.83 11.87 31.18 8.5C32.83 5.13 36.21 3 40 3ZM40 1C35 1 30.73 4.11 29 8.5C30.73 12.89 35 16 40 16C45 16 49.27 12.89 51 8.5C49.27 4.11 45 1 40 1ZM40 6C41.38 6 42.5 7.12 42.5 8.5C42.5 9.88 41.38 11 40 11C38.62 11 37.5 9.88 37.5 8.5C37.5 7.12 38.62 6 40 6ZM40 4C37.52 4 35.5 6.02 35.5 8.5C35.5 10.98 37.52 13 40 13C42.48 13 44.5 10.98 44.5 8.5C44.5 6.02 42.48 4 40 4Z" fill="#313265"/>
</svg>