<svg width="100" height="58" viewBox="0 0 100 58" fill="none" xmlns="http://www.w3.org/2000/svg">
<path d="M97.3064 0H71.1282C69.406 0 68.2004 1.3778 68.2004 2.92782V27.3838C68.2004 28.0727 67.6837 28.5893 66.9948 28.5893L52.1835 28.7616C51.6668 28.7616 50.9779 28.4171 50.9779 27.556V8.78347C50.9779 7.5779 49.7723 6.54455 48.739 6.54455H28.5887C27.3831 6.54455 26.3497 7.75012 26.3497 8.78347V27.556C26.3497 28.0727 26.0053 28.5893 25.3164 28.5893H13.9495C12.744 28.5893 11.7106 29.7949 11.7106 30.8283V43.4007C11.7106 44.6063 12.9162 45.6396 13.9495 45.6396H26.5219C27.7275 45.6396 28.7609 44.4341 28.7609 43.4007V32.0338C28.7609 31.5172 29.1053 31.0005 29.7942 31.0005H47.8779C48.3945 31.0005 49.0834 31.345 49.0834 32.2061L48.9112 48.223C48.9112 49.9453 50.289 51.1508 51.839 51.1508H68.3726C70.0949 51.1508 71.3005 49.773 71.3005 48.223V33.2394C71.3005 32.5505 71.8171 32.0338 72.506 32.0338H96.962C98.6842 32.0338 99.8898 30.656 99.8898 29.106V2.92782C100.406 1.55002 99.0287 0 97.3064 0Z" fill="url(#paint0_linear_3781_62210)"/>
<path d="M8.43902 56.3175V50.9785C8.43902 50.1174 7.75013 49.4285 6.889 49.4285H1.55002C0.688899 49.4285 0 50.1174 0 50.9785V56.3175C0 57.1786 0.688899 57.8675 1.55002 57.8675H6.889C7.75013 57.6953 8.43902 57.1786 8.43902 56.3175Z" fill="url(#paint1_linear_3781_62210)"/>
<defs>
<linearGradient id="paint0_linear_3781_62210" x1="10.8531" y1="48.8592" x2="99.0357" y2="2.13388" gradientUnits="userSpaceOnUse">
<stop offset="0.013931" stop-color="#D8353B"/>
<stop offset="0.1478" stop-color="#DD4E37"/>
<stop offset="0.4031" stop-color="#E86F2F"/>
<stop offset="0.6387" stop-color="#EE8426"/>
<stop offset="0.8452" stop-color="#F59222"/>
<stop offset="1" stop-color="#F89822"/>
</linearGradient>
<linearGradient id="paint1_linear_3781_62210" x1="-0.116769" y1="53.6481" x2="8.37272" y2="53.6481" gradientUnits="userSpaceOnUse">
<stop offset="0.013931" stop-color="#D8353B"/>
<stop offset="0.3849" stop-color="#D8353B"/>
</linearGradient>
</defs>
</svg>
