<svg width="300" height="200" viewBox="0 0 276 115" fill="none" xmlns="http://www.w3.org/2000/svg">
<rect x="100" y="37" width="20" height="78" rx="2" fill="#313265"/>
<path d="M97.3068 0H71.1286C69.4063 0 68.2007 1.3778 68.2007 2.92782V27.3838C68.2007 28.0727 67.6841 28.5893 66.9952 28.5893L52.1838 28.7616C51.6671 28.7616 50.9782 28.4171 50.9782 27.556V8.78347C50.9782 7.5779 49.7727 6.54455 48.7393 6.54455H28.589C27.3834 6.54455 26.3501 7.75012 26.3501 8.78347V27.556C26.3501 28.0727 26.0056 28.5893 25.3167 28.5893H13.9499C12.7443 28.5893 11.7109 29.7949 11.7109 30.8283V43.4007C11.7109 44.6063 12.9165 45.6396 13.9499 45.6396H26.5223C27.7279 45.6396 28.7612 44.4341 28.7612 43.4007V32.0338C28.7612 31.5172 29.1057 31.0005 29.7946 31.0005H47.8782C48.3949 31.0005 49.0838 31.345 49.0838 32.2061L48.9115 48.223C48.9115 49.9453 50.2893 51.1508 51.8394 51.1508H68.373C70.0952 51.1508 71.3008 49.773 71.3008 48.223V33.2394C71.3008 32.5505 71.8175 32.0338 72.5064 32.0338H96.9623C98.6846 32.0338 99.8901 30.656 99.8901 29.106V2.92782C100.407 1.55002 99.029 0 97.3068 0Z" fill="url(#paint0_linear_4215_45005)"/>
<path d="M8.43902 56.3174V50.9785C8.43902 50.1173 7.75013 49.4284 6.889 49.4284H1.55002C0.688899 49.4284 0 50.1173 0 50.9785V56.3174C0 57.1786 0.688899 57.8675 1.55002 57.8675H6.889C7.75013 57.6952 8.43902 57.1786 8.43902 56.3174Z" fill="url(#paint1_linear_4215_45005)"/>
<path d="M112.9 60C112.767 60 112.673 59.94 112.62 59.82L110.12 54.28C110.093 54.2267 110.053 54.2 110 54.2H108.14C108.073 54.2 108.04 54.2333 108.04 54.3V59.76C108.04 59.8267 108.013 59.8867 107.96 59.94C107.92 59.98 107.867 60 107.8 60H105.46C105.393 60 105.333 59.98 105.28 59.94C105.24 59.8867 105.22 59.8267 105.22 59.76V46.24C105.22 46.1733 105.24 46.12 105.28 46.08C105.333 46.0267 105.393 46 105.46 46H111.18C112.033 46 112.78 46.1733 113.42 46.52C114.073 46.8667 114.573 47.36 114.92 48C115.28 48.64 115.46 49.38 115.46 50.22C115.46 51.1267 115.233 51.9067 114.78 52.56C114.327 53.2 113.693 53.6533 112.88 53.92C112.813 53.9467 112.793 53.9933 112.82 54.06L115.54 59.72C115.567 59.7733 115.58 59.8133 115.58 59.84C115.58 59.9467 115.507 60 115.36 60H112.9ZM108.14 48.42C108.073 48.42 108.04 48.4533 108.04 48.52V51.94C108.04 52.0067 108.073 52.04 108.14 52.04H110.76C111.32 52.04 111.773 51.8733 112.12 51.54C112.48 51.2067 112.66 50.7733 112.66 50.24C112.66 49.7067 112.48 49.2733 112.12 48.94C111.773 48.5933 111.32 48.42 110.76 48.42H108.14ZM112.9 84C112.767 84 112.673 83.94 112.62 83.82L110.12 78.28C110.093 78.2267 110.053 78.2 110 78.2H108.14C108.073 78.2 108.04 78.2333 108.04 78.3V83.76C108.04 83.8267 108.013 83.8867 107.96 83.94C107.92 83.98 107.867 84 107.8 84H105.46C105.393 84 105.333 83.98 105.28 83.94C105.24 83.8867 105.22 83.8267 105.22 83.76V70.24C105.22 70.1733 105.24 70.12 105.28 70.08C105.333 70.0267 105.393 70 105.46 70H111.18C112.033 70 112.78 70.1733 113.42 70.52C114.073 70.8667 114.573 71.36 114.92 72C115.28 72.64 115.46 73.38 115.46 74.22C115.46 75.1267 115.233 75.9067 114.78 76.56C114.327 77.2 113.693 77.6533 112.88 77.92C112.813 77.9467 112.793 77.9933 112.82 78.06L115.54 83.72C115.567 83.7733 115.58 83.8133 115.58 83.84C115.58 83.9467 115.507 84 115.36 84H112.9ZM108.14 72.42C108.073 72.42 108.04 72.4533 108.04 72.52V75.94C108.04 76.0067 108.073 76.04 108.14 76.04H110.76C111.32 76.04 111.773 75.8733 112.12 75.54C112.48 75.2067 112.66 74.7733 112.66 74.24C112.66 73.7067 112.48 73.2733 112.12 72.94C111.773 72.5933 111.32 72.42 110.76 72.42H108.14ZM114.94 96.18C114.94 96.2467 114.913 96.3067 114.86 96.36C114.82 96.4 114.767 96.42 114.7 96.42H108.14C108.073 96.42 108.04 96.4533 108.04 96.52V99.62C108.04 99.6867 108.073 99.72 108.14 99.72H112.44C112.507 99.72 112.56 99.7467 112.6 99.8C112.653 99.84 112.68 99.8933 112.68 99.96V101.9C112.68 101.967 112.653 102.027 112.6 102.08C112.56 102.12 112.507 102.14 112.44 102.14H108.14C108.073 102.14 108.04 102.173 108.04 102.24V105.48C108.04 105.547 108.073 105.58 108.14 105.58H114.7C114.767 105.58 114.82 105.607 114.86 105.66C114.913 105.7 114.94 105.753 114.94 105.82V107.76C114.94 107.827 114.913 107.887 114.86 107.94C114.82 107.98 114.767 108 114.7 108H105.46C105.393 108 105.333 107.98 105.28 107.94C105.24 107.887 105.22 107.827 105.22 107.76V94.24C105.22 94.1733 105.24 94.12 105.28 94.08C105.333 94.0267 105.393 94 105.46 94H114.7C114.767 94 114.82 94.0267 114.86 94.08C114.913 94.12 114.94 94.1733 114.94 94.24V96.18Z" fill="white"/>
<path d="M131.229 48.18C131.229 48.2467 131.202 48.3067 131.149 48.36C131.109 48.4 131.056 48.42 130.989 48.42H124.429C124.362 48.42 124.329 48.4533 124.329 48.52V51.62C124.329 51.6867 124.362 51.72 124.429 51.72H128.729C128.796 51.72 128.849 51.7467 128.889 51.8C128.942 51.84 128.969 51.8933 128.969 51.96V53.9C128.969 53.9667 128.942 54.0267 128.889 54.08C128.849 54.12 128.796 54.14 128.729 54.14H124.429C124.362 54.14 124.329 54.1733 124.329 54.24V57.48C124.329 57.5467 124.362 57.58 124.429 57.58H130.989C131.056 57.58 131.109 57.6067 131.149 57.66C131.202 57.7 131.229 57.7533 131.229 57.82V59.76C131.229 59.8267 131.202 59.8867 131.149 59.94C131.109 59.98 131.056 60 130.989 60H121.749C121.682 60 121.622 59.98 121.569 59.94C121.529 59.8867 121.509 59.8267 121.509 59.76V46.24C121.509 46.1733 121.529 46.12 121.569 46.08C121.622 46.0267 121.682 46 121.749 46H130.989C131.056 46 131.109 46.0267 131.149 46.08C131.202 46.12 131.229 46.1733 131.229 46.24V48.18ZM137.989 60.16C136.922 60.16 135.989 59.9933 135.189 59.66C134.389 59.3133 133.769 58.8267 133.329 58.2C132.902 57.56 132.689 56.82 132.689 55.98V55.54C132.689 55.4733 132.709 55.42 132.749 55.38C132.802 55.3267 132.862 55.3 132.929 55.3H135.209C135.275 55.3 135.329 55.3267 135.369 55.38C135.422 55.42 135.449 55.4733 135.449 55.54V55.84C135.449 56.3733 135.695 56.8267 136.189 57.2C136.682 57.56 137.349 57.74 138.189 57.74C138.895 57.74 139.422 57.5933 139.769 57.3C140.115 56.9933 140.289 56.62 140.289 56.18C140.289 55.86 140.182 55.5933 139.969 55.38C139.755 55.1533 139.462 54.96 139.089 54.8C138.729 54.6267 138.149 54.3933 137.349 54.1C136.455 53.7933 135.695 53.48 135.069 53.16C134.455 52.84 133.935 52.4067 133.509 51.86C133.095 51.3 132.889 50.6133 132.889 49.8C132.889 49 133.095 48.3 133.509 47.7C133.922 47.1 134.495 46.64 135.229 46.32C135.962 46 136.809 45.84 137.769 45.84C138.782 45.84 139.682 46.02 140.469 46.38C141.269 46.74 141.889 47.2467 142.329 47.9C142.782 48.54 143.009 49.2867 143.009 50.14V50.44C143.009 50.5067 142.982 50.5667 142.929 50.62C142.889 50.66 142.835 50.68 142.769 50.68H140.469C140.402 50.68 140.342 50.66 140.289 50.62C140.249 50.5667 140.229 50.5067 140.229 50.44V50.28C140.229 49.72 139.995 49.2467 139.529 48.86C139.075 48.46 138.449 48.26 137.649 48.26C137.022 48.26 136.529 48.3933 136.169 48.66C135.822 48.9267 135.649 49.2933 135.649 49.76C135.649 50.0933 135.749 50.3733 135.949 50.6C136.162 50.8267 136.469 51.0333 136.869 51.22C137.282 51.3933 137.915 51.6333 138.769 51.94C139.715 52.2867 140.455 52.5933 140.989 52.86C141.535 53.1267 142.022 53.5267 142.449 54.06C142.889 54.58 143.109 55.26 143.109 56.1C143.109 57.3533 142.649 58.3467 141.729 59.08C140.809 59.8 139.562 60.16 137.989 60.16ZM150.063 60.22C149.023 60.22 148.103 60.0067 147.303 59.58C146.517 59.1533 145.903 58.56 145.463 57.8C145.023 57.0267 144.803 56.14 144.803 55.14V50.86C144.803 49.8733 145.023 49 145.463 48.24C145.903 47.48 146.517 46.8933 147.303 46.48C148.103 46.0533 149.023 45.84 150.063 45.84C151.117 45.84 152.037 46.0533 152.823 46.48C153.623 46.8933 154.243 47.48 154.683 48.24C155.123 49 155.343 49.8733 155.343 50.86V55.14C155.343 56.14 155.123 57.0267 154.683 57.8C154.243 58.5733 153.623 59.1733 152.823 59.6C152.037 60.0133 151.117 60.22 150.063 60.22ZM150.063 57.8C150.797 57.8 151.39 57.5667 151.843 57.1C152.297 56.6333 152.523 56.0133 152.523 55.24V50.84C152.523 50.0667 152.297 49.4467 151.843 48.98C151.403 48.5 150.81 48.26 150.063 48.26C149.33 48.26 148.737 48.5 148.283 48.98C147.843 49.4467 147.623 50.0667 147.623 50.84V55.24C147.623 56.0133 147.843 56.6333 148.283 57.1C148.737 57.5667 149.33 57.8 150.063 57.8ZM162.585 60.16C161.558 60.16 160.652 59.96 159.865 59.56C159.092 59.16 158.485 58.6 158.045 57.88C157.618 57.1467 157.405 56.3067 157.405 55.36V46.24C157.405 46.1733 157.425 46.12 157.465 46.08C157.518 46.0267 157.578 46 157.645 46H159.985C160.052 46 160.105 46.0267 160.145 46.08C160.198 46.12 160.225 46.1733 160.225 46.24V55.38C160.225 56.0867 160.438 56.66 160.865 57.1C161.305 57.5267 161.878 57.74 162.585 57.74C163.292 57.74 163.858 57.5267 164.285 57.1C164.725 56.66 164.945 56.0867 164.945 55.38V46.24C164.945 46.1733 164.965 46.12 165.005 46.08C165.058 46.0267 165.118 46 165.185 46H167.525C167.592 46 167.645 46.0267 167.685 46.08C167.738 46.12 167.765 46.1733 167.765 46.24V55.36C167.765 56.3067 167.545 57.1467 167.105 57.88C166.678 58.6 166.072 59.16 165.285 59.56C164.512 59.96 163.612 60.16 162.585 60.16ZM177.763 60C177.63 60 177.537 59.94 177.483 59.82L174.983 54.28C174.957 54.2267 174.917 54.2 174.863 54.2H173.003C172.937 54.2 172.903 54.2333 172.903 54.3V59.76C172.903 59.8267 172.877 59.8867 172.823 59.94C172.783 59.98 172.73 60 172.663 60H170.323C170.257 60 170.197 59.98 170.143 59.94C170.103 59.8867 170.083 59.8267 170.083 59.76V46.24C170.083 46.1733 170.103 46.12 170.143 46.08C170.197 46.0267 170.257 46 170.323 46H176.043C176.897 46 177.643 46.1733 178.283 46.52C178.937 46.8667 179.437 47.36 179.783 48C180.143 48.64 180.323 49.38 180.323 50.22C180.323 51.1267 180.097 51.9067 179.643 52.56C179.19 53.2 178.557 53.6533 177.743 53.92C177.677 53.9467 177.657 53.9933 177.683 54.06L180.403 59.72C180.43 59.7733 180.443 59.8133 180.443 59.84C180.443 59.9467 180.37 60 180.223 60H177.763ZM173.003 48.42C172.937 48.42 172.903 48.4533 172.903 48.52V51.94C172.903 52.0067 172.937 52.04 173.003 52.04H175.623C176.183 52.04 176.637 51.8733 176.983 51.54C177.343 51.2067 177.523 50.7733 177.523 50.24C177.523 49.7067 177.343 49.2733 176.983 48.94C176.637 48.5933 176.183 48.42 175.623 48.42H173.003ZM187.288 60.16C186.248 60.16 185.335 59.96 184.548 59.56C183.762 59.1467 183.155 58.5733 182.728 57.84C182.302 57.1067 182.088 56.26 182.088 55.3V50.68C182.088 49.72 182.302 48.8733 182.728 48.14C183.155 47.4067 183.762 46.84 184.548 46.44C185.335 46.04 186.248 45.84 187.288 45.84C188.315 45.84 189.215 46.0333 189.988 46.42C190.775 46.7933 191.382 47.3333 191.808 48.04C192.248 48.7333 192.468 49.54 192.468 50.46C192.468 50.58 192.388 50.6533 192.228 50.68L189.888 50.82H189.848C189.715 50.82 189.648 50.7467 189.648 50.6C189.648 49.8933 189.428 49.3267 188.988 48.9C188.562 48.4733 187.995 48.26 187.288 48.26C186.568 48.26 185.988 48.4733 185.548 48.9C185.122 49.3267 184.908 49.8933 184.908 50.6V55.42C184.908 56.1133 185.122 56.6733 185.548 57.1C185.988 57.5267 186.568 57.74 187.288 57.74C187.995 57.74 188.562 57.5267 188.988 57.1C189.428 56.6733 189.648 56.1133 189.648 55.42C189.648 55.2733 189.728 55.2 189.888 55.2L192.228 55.3C192.295 55.3 192.348 55.32 192.388 55.36C192.442 55.4 192.468 55.4467 192.468 55.5C192.468 56.42 192.248 57.2333 191.808 57.94C191.382 58.6467 190.775 59.1933 189.988 59.58C189.215 59.9667 188.315 60.16 187.288 60.16ZM204.256 48.18C204.256 48.2467 204.23 48.3067 204.176 48.36C204.136 48.4 204.083 48.42 204.016 48.42H197.456C197.39 48.42 197.356 48.4533 197.356 48.52V51.62C197.356 51.6867 197.39 51.72 197.456 51.72H201.756C201.823 51.72 201.876 51.7467 201.916 51.8C201.97 51.84 201.996 51.8933 201.996 51.96V53.9C201.996 53.9667 201.97 54.0267 201.916 54.08C201.876 54.12 201.823 54.14 201.756 54.14H197.456C197.39 54.14 197.356 54.1733 197.356 54.24V57.48C197.356 57.5467 197.39 57.58 197.456 57.58H204.016C204.083 57.58 204.136 57.6067 204.176 57.66C204.23 57.7 204.256 57.7533 204.256 57.82V59.76C204.256 59.8267 204.23 59.8867 204.176 59.94C204.136 59.98 204.083 60 204.016 60H194.776C194.71 60 194.65 59.98 194.596 59.94C194.556 59.8867 194.536 59.8267 194.536 59.76V46.24C194.536 46.1733 194.556 46.12 194.596 46.08C194.65 46.0267 194.71 46 194.776 46H204.016C204.083 46 204.136 46.0267 204.176 46.08C204.23 46.12 204.256 46.1733 204.256 46.24V48.18ZM131.229 72.18C131.229 72.2467 131.202 72.3067 131.149 72.36C131.109 72.4 131.056 72.42 130.989 72.42H124.429C124.362 72.42 124.329 72.4533 124.329 72.52V75.62C124.329 75.6867 124.362 75.72 124.429 75.72H128.729C128.796 75.72 128.849 75.7467 128.889 75.8C128.942 75.84 128.969 75.8933 128.969 75.96V77.9C128.969 77.9667 128.942 78.0267 128.889 78.08C128.849 78.12 128.796 78.14 128.729 78.14H124.429C124.362 78.14 124.329 78.1733 124.329 78.24V81.48C124.329 81.5467 124.362 81.58 124.429 81.58H130.989C131.056 81.58 131.109 81.6067 131.149 81.66C131.202 81.7 131.229 81.7533 131.229 81.82V83.76C131.229 83.8267 131.202 83.8867 131.149 83.94C131.109 83.98 131.056 84 130.989 84H121.749C121.682 84 121.622 83.98 121.569 83.94C121.529 83.8867 121.509 83.8267 121.509 83.76V70.24C121.509 70.1733 121.529 70.12 121.569 70.08C121.622 70.0267 121.682 70 121.749 70H130.989C131.056 70 131.109 70.0267 131.149 70.08C131.202 70.12 131.229 70.1733 131.229 70.24V72.18ZM138.109 84.16C137.069 84.16 136.155 83.96 135.369 83.56C134.582 83.1467 133.975 82.5733 133.549 81.84C133.122 81.1067 132.909 80.26 132.909 79.3V74.68C132.909 73.72 133.122 72.8733 133.549 72.14C133.975 71.4067 134.582 70.84 135.369 70.44C136.155 70.04 137.069 69.84 138.109 69.84C139.135 69.84 140.035 70.0333 140.809 70.42C141.595 70.7933 142.202 71.3333 142.629 72.04C143.069 72.7333 143.289 73.54 143.289 74.46C143.289 74.58 143.209 74.6533 143.049 74.68L140.709 74.82H140.669C140.535 74.82 140.469 74.7467 140.469 74.6C140.469 73.8933 140.249 73.3267 139.809 72.9C139.382 72.4733 138.815 72.26 138.109 72.26C137.389 72.26 136.809 72.4733 136.369 72.9C135.942 73.3267 135.729 73.8933 135.729 74.6V79.42C135.729 80.1133 135.942 80.6733 136.369 81.1C136.809 81.5267 137.389 81.74 138.109 81.74C138.815 81.74 139.382 81.5267 139.809 81.1C140.249 80.6733 140.469 80.1133 140.469 79.42C140.469 79.2733 140.549 79.2 140.709 79.2L143.049 79.3C143.115 79.3 143.169 79.32 143.209 79.36C143.262 79.4 143.289 79.4467 143.289 79.5C143.289 80.42 143.069 81.2333 142.629 81.94C142.202 82.6467 141.595 83.1933 140.809 83.58C140.035 83.9667 139.135 84.16 138.109 84.16ZM150.337 84.22C149.297 84.22 148.377 84.0067 147.577 83.58C146.79 83.1533 146.177 82.56 145.737 81.8C145.297 81.0267 145.077 80.14 145.077 79.14V74.86C145.077 73.8733 145.297 73 145.737 72.24C146.177 71.48 146.79 70.8933 147.577 70.48C148.377 70.0533 149.297 69.84 150.337 69.84C151.39 69.84 152.31 70.0533 153.097 70.48C153.897 70.8933 154.517 71.48 154.957 72.24C155.397 73 155.617 73.8733 155.617 74.86V79.14C155.617 80.14 155.397 81.0267 154.957 81.8C154.517 82.5733 153.897 83.1733 153.097 83.6C152.31 84.0133 151.39 84.22 150.337 84.22ZM150.337 81.8C151.07 81.8 151.663 81.5667 152.117 81.1C152.57 80.6333 152.797 80.0133 152.797 79.24V74.84C152.797 74.0667 152.57 73.4467 152.117 72.98C151.677 72.5 151.083 72.26 150.337 72.26C149.603 72.26 149.01 72.5 148.557 72.98C148.117 73.4467 147.897 74.0667 147.897 74.84V79.24C147.897 80.0133 148.117 80.6333 148.557 81.1C149.01 81.5667 149.603 81.8 150.337 81.8ZM166.779 70.16C166.845 70.0533 166.939 70 167.059 70H169.399C169.465 70 169.519 70.0267 169.559 70.08C169.612 70.12 169.639 70.1733 169.639 70.24V83.76C169.639 83.8267 169.612 83.8867 169.559 83.94C169.519 83.98 169.465 84 169.399 84H167.059C166.992 84 166.932 83.98 166.879 83.94C166.839 83.8867 166.819 83.8267 166.819 83.76V74.94C166.819 74.8867 166.805 74.86 166.779 74.86C166.752 74.86 166.725 74.88 166.699 74.92L164.579 78.24C164.512 78.3467 164.419 78.4 164.299 78.4H163.119C162.999 78.4 162.905 78.3467 162.839 78.24L160.719 74.92C160.692 74.88 160.665 74.8667 160.639 74.88C160.612 74.88 160.599 74.9067 160.599 74.96V83.76C160.599 83.8267 160.572 83.8867 160.519 83.94C160.479 83.98 160.425 84 160.359 84H158.019C157.952 84 157.892 83.98 157.839 83.94C157.799 83.8867 157.779 83.8267 157.779 83.76V70.24C157.779 70.1733 157.799 70.12 157.839 70.08C157.892 70.0267 157.952 70 158.019 70H160.359C160.479 70 160.572 70.0533 160.639 70.16L163.639 74.82C163.679 74.9 163.719 74.9 163.759 74.82L166.779 70.16ZM181.075 70.16C181.142 70.0533 181.235 70 181.355 70H183.695C183.762 70 183.815 70.0267 183.855 70.08C183.909 70.12 183.935 70.1733 183.935 70.24V83.76C183.935 83.8267 183.909 83.8867 183.855 83.94C183.815 83.98 183.762 84 183.695 84H181.355C181.289 84 181.229 83.98 181.175 83.94C181.135 83.8867 181.115 83.8267 181.115 83.76V74.94C181.115 74.8867 181.102 74.86 181.075 74.86C181.049 74.86 181.022 74.88 180.995 74.92L178.875 78.24C178.809 78.3467 178.715 78.4 178.595 78.4H177.415C177.295 78.4 177.202 78.3467 177.135 78.24L175.015 74.92C174.989 74.88 174.962 74.8667 174.935 74.88C174.909 74.88 174.895 74.9067 174.895 74.96V83.76C174.895 83.8267 174.869 83.8867 174.815 83.94C174.775 83.98 174.722 84 174.655 84H172.315C172.249 84 172.189 83.98 172.135 83.94C172.095 83.8867 172.075 83.8267 172.075 83.76V70.24C172.075 70.1733 172.095 70.12 172.135 70.08C172.189 70.0267 172.249 70 172.315 70H174.655C174.775 70 174.869 70.0533 174.935 70.16L177.935 74.82C177.975 74.9 178.015 74.9 178.055 74.82L181.075 70.16ZM196.092 72.18C196.092 72.2467 196.066 72.3067 196.012 72.36C195.972 72.4 195.919 72.42 195.852 72.42H189.292C189.226 72.42 189.192 72.4533 189.192 72.52V75.62C189.192 75.6867 189.226 75.72 189.292 75.72H193.592C193.659 75.72 193.712 75.7467 193.752 75.8C193.806 75.84 193.832 75.8933 193.832 75.96V77.9C193.832 77.9667 193.806 78.0267 193.752 78.08C193.712 78.12 193.659 78.14 193.592 78.14H189.292C189.226 78.14 189.192 78.1733 189.192 78.24V81.48C189.192 81.5467 189.226 81.58 189.292 81.58H195.852C195.919 81.58 195.972 81.6067 196.012 81.66C196.066 81.7 196.092 81.7533 196.092 81.82V83.76C196.092 83.8267 196.066 83.8867 196.012 83.94C195.972 83.98 195.919 84 195.852 84H186.612C186.546 84 186.486 83.98 186.432 83.94C186.392 83.8867 186.372 83.8267 186.372 83.76V70.24C186.372 70.1733 186.392 70.12 186.432 70.08C186.486 70.0267 186.546 70 186.612 70H195.852C195.919 70 195.972 70.0267 196.012 70.08C196.066 70.12 196.092 70.1733 196.092 70.24V72.18ZM206.092 70.24C206.092 70.1733 206.112 70.12 206.152 70.08C206.205 70.0267 206.265 70 206.332 70H208.672C208.739 70 208.792 70.0267 208.832 70.08C208.885 70.12 208.912 70.1733 208.912 70.24V83.76C208.912 83.8267 208.885 83.8867 208.832 83.94C208.792 83.98 208.739 84 208.672 84H206.412C206.279 84 206.185 83.9467 206.132 83.84L200.952 75.28C200.925 75.24 200.899 75.2267 200.872 75.24C200.845 75.24 200.832 75.2667 200.832 75.32L200.872 83.76C200.872 83.8267 200.845 83.8867 200.792 83.94C200.752 83.98 200.699 84 200.632 84H198.292C198.225 84 198.165 83.98 198.112 83.94C198.072 83.8867 198.052 83.8267 198.052 83.76V70.24C198.052 70.1733 198.072 70.12 198.112 70.08C198.165 70.0267 198.225 70 198.292 70H200.552C200.685 70 200.779 70.0533 200.832 70.16L205.992 78.68C206.019 78.72 206.045 78.74 206.072 78.74C206.099 78.7267 206.112 78.6933 206.112 78.64L206.092 70.24ZM211.476 84C211.409 84 211.349 83.98 211.296 83.94C211.256 83.8867 211.236 83.8267 211.236 83.76V70.24C211.236 70.1733 211.256 70.12 211.296 70.08C211.349 70.0267 211.409 70 211.476 70H216.476C217.476 70 218.349 70.18 219.096 70.54C219.856 70.8867 220.442 71.38 220.856 72.02C221.269 72.66 221.476 73.4 221.476 74.24V79.76C221.476 80.6 221.269 81.34 220.856 81.98C220.442 82.62 219.856 83.12 219.096 83.48C218.349 83.8267 217.476 84 216.476 84H211.476ZM214.056 81.48C214.056 81.5467 214.089 81.58 214.156 81.58H216.576C217.189 81.58 217.682 81.3733 218.056 80.96C218.442 80.5467 218.642 79.9933 218.656 79.3V74.7C218.656 74.0067 218.462 73.4533 218.076 73.04C217.702 72.6267 217.196 72.42 216.556 72.42H214.156C214.089 72.42 214.056 72.4533 214.056 72.52V81.48ZM231.737 84C231.604 84 231.517 83.9333 231.477 83.8L230.877 81.84C230.851 81.7867 230.817 81.76 230.777 81.76H225.857C225.817 81.76 225.784 81.7867 225.757 81.84L225.177 83.8C225.137 83.9333 225.051 84 224.917 84H222.377C222.297 84 222.237 83.98 222.197 83.94C222.157 83.8867 222.151 83.8133 222.177 83.72L226.497 70.2C226.537 70.0667 226.624 70 226.757 70H229.897C230.031 70 230.117 70.0667 230.157 70.2L234.477 83.72C234.491 83.7467 234.497 83.78 234.497 83.82C234.497 83.94 234.424 84 234.277 84H231.737ZM226.477 79.46C226.464 79.54 226.491 79.58 226.557 79.58H230.077C230.157 79.58 230.184 79.54 230.157 79.46L228.357 73.52C228.344 73.4667 228.324 73.4467 228.297 73.46C228.271 73.46 228.251 73.48 228.237 73.52L226.477 79.46ZM244.196 70C244.263 70 244.316 70.0267 244.356 70.08C244.41 70.12 244.436 70.1733 244.436 70.24V72.2C244.436 72.2667 244.41 72.3267 244.356 72.38C244.316 72.42 244.263 72.44 244.196 72.44H240.616C240.55 72.44 240.516 72.4733 240.516 72.54V83.76C240.516 83.8267 240.49 83.8867 240.436 83.94C240.396 83.98 240.343 84 240.276 84H237.936C237.87 84 237.81 83.98 237.756 83.94C237.716 83.8867 237.696 83.8267 237.696 83.76V72.54C237.696 72.4733 237.663 72.44 237.596 72.44H234.116C234.05 72.44 233.99 72.42 233.936 72.38C233.896 72.3267 233.876 72.2667 233.876 72.2V70.24C233.876 70.1733 233.896 70.12 233.936 70.08C233.99 70.0267 234.05 70 234.116 70H244.196ZM246.476 84C246.409 84 246.349 83.98 246.296 83.94C246.256 83.8867 246.236 83.8267 246.236 83.76V70.24C246.236 70.1733 246.256 70.12 246.296 70.08C246.349 70.0267 246.409 70 246.476 70H248.816C248.882 70 248.936 70.0267 248.976 70.08C249.029 70.12 249.056 70.1733 249.056 70.24V83.76C249.056 83.8267 249.029 83.8867 248.976 83.94C248.936 83.98 248.882 84 248.816 84H246.476ZM256.47 84.22C255.43 84.22 254.51 84.0067 253.71 83.58C252.923 83.1533 252.31 82.56 251.87 81.8C251.43 81.0267 251.21 80.14 251.21 79.14V74.86C251.21 73.8733 251.43 73 251.87 72.24C252.31 71.48 252.923 70.8933 253.71 70.48C254.51 70.0533 255.43 69.84 256.47 69.84C257.523 69.84 258.443 70.0533 259.23 70.48C260.03 70.8933 260.65 71.48 261.09 72.24C261.53 73 261.75 73.8733 261.75 74.86V79.14C261.75 80.14 261.53 81.0267 261.09 81.8C260.65 82.5733 260.03 83.1733 259.23 83.6C258.443 84.0133 257.523 84.22 256.47 84.22ZM256.47 81.8C257.203 81.8 257.796 81.5667 258.25 81.1C258.703 80.6333 258.93 80.0133 258.93 79.24V74.84C258.93 74.0667 258.703 73.4467 258.25 72.98C257.81 72.5 257.216 72.26 256.47 72.26C255.736 72.26 255.143 72.5 254.69 72.98C254.25 73.4467 254.03 74.0667 254.03 74.84V79.24C254.03 80.0133 254.25 80.6333 254.69 81.1C255.143 81.5667 255.736 81.8 256.47 81.8ZM271.951 70.24C271.951 70.1733 271.971 70.12 272.011 70.08C272.065 70.0267 272.125 70 272.191 70H274.531C274.598 70 274.651 70.0267 274.691 70.08C274.745 70.12 274.771 70.1733 274.771 70.24V83.76C274.771 83.8267 274.745 83.8867 274.691 83.94C274.651 83.98 274.598 84 274.531 84H272.271C272.138 84 272.045 83.9467 271.991 83.84L266.811 75.28C266.785 75.24 266.758 75.2267 266.731 75.24C266.705 75.24 266.691 75.2667 266.691 75.32L266.731 83.76C266.731 83.8267 266.705 83.8867 266.651 83.94C266.611 83.98 266.558 84 266.491 84H264.151C264.085 84 264.025 83.98 263.971 83.94C263.931 83.8867 263.911 83.8267 263.911 83.76V70.24C263.911 70.1733 263.931 70.12 263.971 70.08C264.025 70.0267 264.085 70 264.151 70H266.411C266.545 70 266.638 70.0533 266.691 70.16L271.851 78.68C271.878 78.72 271.905 78.74 271.931 78.74C271.958 78.7267 271.971 78.6933 271.971 78.64L271.951 70.24ZM128.944 94.24C128.944 94.1733 128.964 94.12 129.004 94.08C129.057 94.0267 129.117 94 129.184 94H131.524C131.59 94 131.644 94.0267 131.684 94.08C131.737 94.12 131.764 94.1733 131.764 94.24V107.76C131.764 107.827 131.737 107.887 131.684 107.94C131.644 107.98 131.59 108 131.524 108H129.264C129.13 108 129.037 107.947 128.984 107.84L123.804 99.28C123.777 99.24 123.75 99.2267 123.724 99.24C123.697 99.24 123.684 99.2667 123.684 99.32L123.724 107.76C123.724 107.827 123.697 107.887 123.644 107.94C123.604 107.98 123.55 108 123.484 108H121.144C121.077 108 121.017 107.98 120.964 107.94C120.924 107.887 120.904 107.827 120.904 107.76V94.24C120.904 94.1733 120.924 94.12 120.964 94.08C121.017 94.0267 121.077 94 121.144 94H123.404C123.537 94 123.63 94.0533 123.684 94.16L128.844 102.68C128.87 102.72 128.897 102.74 128.924 102.74C128.95 102.727 128.964 102.693 128.964 102.64L128.944 94.24ZM139.124 108.16C138.098 108.16 137.191 107.953 136.404 107.54C135.618 107.127 135.004 106.553 134.564 105.82C134.138 105.073 133.924 104.213 133.924 103.24V98.76C133.924 97.7867 134.138 96.9267 134.564 96.18C135.004 95.4333 135.618 94.86 136.404 94.46C137.191 94.0467 138.098 93.84 139.124 93.84C140.138 93.84 141.031 94.04 141.804 94.44C142.591 94.84 143.198 95.3867 143.624 96.08C144.064 96.76 144.284 97.52 144.284 98.36V98.5C144.284 98.5667 144.258 98.6267 144.204 98.68C144.164 98.72 144.111 98.74 144.044 98.74H141.704C141.638 98.74 141.578 98.72 141.524 98.68C141.484 98.6267 141.464 98.5667 141.464 98.5V98.44C141.464 97.8267 141.251 97.3133 140.824 96.9C140.398 96.4733 139.831 96.26 139.124 96.26C138.404 96.26 137.824 96.4867 137.384 96.94C136.958 97.38 136.744 97.96 136.744 98.68V103.32C136.744 104.04 136.978 104.627 137.444 105.08C137.911 105.52 138.504 105.74 139.224 105.74C139.918 105.74 140.471 105.56 140.884 105.2C141.298 104.827 141.504 104.313 141.504 103.66V102.76C141.504 102.693 141.471 102.66 141.404 102.66H139.164C139.098 102.66 139.038 102.64 138.984 102.6C138.944 102.547 138.924 102.487 138.924 102.42V100.58C138.924 100.513 138.944 100.46 138.984 100.42C139.038 100.367 139.098 100.34 139.164 100.34H144.044C144.111 100.34 144.164 100.367 144.204 100.42C144.258 100.46 144.284 100.513 144.284 100.58V103.22C144.284 104.233 144.071 105.113 143.644 105.86C143.218 106.607 142.611 107.18 141.824 107.58C141.051 107.967 140.151 108.16 139.124 108.16ZM146.69 108C146.624 108 146.564 107.98 146.51 107.94C146.47 107.887 146.45 107.827 146.45 107.76V94.24C146.45 94.1733 146.47 94.12 146.51 94.08C146.564 94.0267 146.624 94 146.69 94H149.03C149.097 94 149.15 94.0267 149.19 94.08C149.244 94.12 149.27 94.1733 149.27 94.24V107.76C149.27 107.827 149.244 107.887 149.19 107.94C149.15 107.98 149.097 108 149.03 108H146.69ZM159.744 94.24C159.744 94.1733 159.764 94.12 159.804 94.08C159.858 94.0267 159.918 94 159.984 94H162.324C162.391 94 162.444 94.0267 162.484 94.08C162.538 94.12 162.564 94.1733 162.564 94.24V107.76C162.564 107.827 162.538 107.887 162.484 107.94C162.444 107.98 162.391 108 162.324 108H160.064C159.931 108 159.838 107.947 159.784 107.84L154.604 99.28C154.578 99.24 154.551 99.2267 154.524 99.24C154.498 99.24 154.484 99.2667 154.484 99.32L154.524 107.76C154.524 107.827 154.498 107.887 154.444 107.94C154.404 107.98 154.351 108 154.284 108H151.944C151.878 108 151.818 107.98 151.764 107.94C151.724 107.887 151.704 107.827 151.704 107.76V94.24C151.704 94.1733 151.724 94.12 151.764 94.08C151.818 94.0267 151.878 94 151.944 94H154.204C154.338 94 154.431 94.0533 154.484 94.16L159.644 102.68C159.671 102.72 159.698 102.74 159.724 102.74C159.751 102.727 159.764 102.693 159.764 102.64L159.744 94.24ZM174.608 96.18C174.608 96.2467 174.581 96.3067 174.528 96.36C174.488 96.4 174.435 96.42 174.368 96.42H167.808C167.741 96.42 167.708 96.4533 167.708 96.52V99.62C167.708 99.6867 167.741 99.72 167.808 99.72H172.108C172.175 99.72 172.228 99.7467 172.268 99.8C172.321 99.84 172.348 99.8933 172.348 99.96V101.9C172.348 101.967 172.321 102.027 172.268 102.08C172.228 102.12 172.175 102.14 172.108 102.14H167.808C167.741 102.14 167.708 102.173 167.708 102.24V105.48C167.708 105.547 167.741 105.58 167.808 105.58H174.368C174.435 105.58 174.488 105.607 174.528 105.66C174.581 105.7 174.608 105.753 174.608 105.82V107.76C174.608 107.827 174.581 107.887 174.528 107.94C174.488 107.98 174.435 108 174.368 108H165.128C165.061 108 165.001 107.98 164.948 107.94C164.908 107.887 164.888 107.827 164.888 107.76V94.24C164.888 94.1733 164.908 94.12 164.948 94.08C165.001 94.0267 165.061 94 165.128 94H174.368C174.435 94 174.488 94.0267 174.528 94.08C174.581 94.12 174.608 94.1733 174.608 94.24V96.18Z" fill="url(#paint2_linear_4215_45005)"/>
<defs>
<linearGradient id="paint0_linear_4215_45005" x1="10.8534" y1="48.8592" x2="99.0361" y2="2.13388" gradientUnits="userSpaceOnUse">
<stop offset="0.013931" stop-color="#D8353B"/>
<stop offset="0.1478" stop-color="#DD4E37"/>
<stop offset="0.4031" stop-color="#E86F2F"/>
<stop offset="0.6387" stop-color="#EE8426"/>
<stop offset="0.8452" stop-color="#F59222"/>
<stop offset="1" stop-color="#F89822"/>
</linearGradient>
<linearGradient id="paint1_linear_4215_45005" x1="-0.116769" y1="53.6481" x2="8.37272" y2="53.6481" gradientUnits="userSpaceOnUse">
<stop offset="0.013931" stop-color="#D8353B"/>
<stop offset="0.3849" stop-color="#D8353B"/>
</linearGradient>
<linearGradient id="paint2_linear_4215_45005" x1="104" y1="85" x2="276.064" y2="83.5527" gradientUnits="userSpaceOnUse">
<stop stop-color="#F46F22"/>
<stop offset="1" stop-color="#313265"/>
</linearGradient>
</defs>
</svg>
