<svg width="38" height="38" viewBox="0 0 38 38" fill="none" xmlns="http://www.w3.org/2000/svg">
<g filter="url(#filter0_d_4317_44986)">
<rect x="1" width="36" height="36" rx="5" fill="#F46F22"/>
</g>
<path d="M10.956 6.186C11.544 6.186 12.062 6.30733 12.51 6.55C12.958 6.79267 13.3033 7.138 13.546 7.586C13.798 8.02467 13.924 8.53333 13.924 9.112C13.924 9.68133 13.798 10.1853 13.546 10.624C13.294 11.0627 12.9347 11.4033 12.468 11.646C12.0107 11.8793 11.4787 11.996 10.872 11.996H8.632C8.58533 11.996 8.562 12.0193 8.562 12.066V15.832C8.562 15.8787 8.54333 15.9207 8.506 15.958C8.478 15.986 8.44067 16 8.394 16H7.106C7.05933 16 7.01733 15.986 6.98 15.958C6.952 15.9207 6.938 15.8787 6.938 15.832V6.354C6.938 6.30733 6.952 6.27 6.98 6.242C7.01733 6.20467 7.05933 6.186 7.106 6.186H10.956ZM10.718 10.68C11.194 10.68 11.5767 10.54 11.866 10.26C12.1553 9.98 12.3 9.61133 12.3 9.154C12.3 8.68733 12.1553 8.30933 11.866 8.02C11.5767 7.73067 11.194 7.586 10.718 7.586H8.632C8.58533 7.586 8.562 7.60933 8.562 7.656V10.61C8.562 10.6567 8.58533 10.68 8.632 10.68H10.718ZM18.6662 16.14C17.9662 16.14 17.3455 16 16.8042 15.72C16.2628 15.4307 15.8428 15.0247 15.5442 14.502C15.2548 13.9793 15.1102 13.3773 15.1102 12.696V9.504C15.1102 8.832 15.2595 8.23933 15.5582 7.726C15.8568 7.20333 16.2722 6.802 16.8042 6.522C17.3455 6.23267 17.9662 6.088 18.6662 6.088C19.3755 6.088 19.9962 6.23267 20.5282 6.522C21.0695 6.802 21.4895 7.20333 21.7882 7.726C22.0868 8.23933 22.2362 8.832 22.2362 9.504V12.696C22.2362 13.3773 22.0868 13.9793 21.7882 14.502C21.4895 15.0247 21.0695 15.4307 20.5282 15.72C19.9962 16 19.3755 16.14 18.6662 16.14ZM18.6662 14.74C19.2542 14.74 19.7255 14.558 20.0802 14.194C20.4348 13.83 20.6122 13.3493 20.6122 12.752V9.49C20.6122 8.88333 20.4348 8.398 20.0802 8.034C19.7255 7.67 19.2542 7.488 18.6662 7.488C18.0875 7.488 17.6208 7.67 17.2662 8.034C16.9115 8.398 16.7342 8.88333 16.7342 9.49V12.752C16.7342 13.3493 16.9115 13.83 17.2662 14.194C17.6208 14.558 18.0875 14.74 18.6662 14.74ZM27.3195 16.112C26.6195 16.112 26.0035 15.9767 25.4715 15.706C24.9395 15.426 24.5288 15.0387 24.2395 14.544C23.9502 14.0493 23.8055 13.4753 23.8055 12.822V9.364C23.8055 8.71067 23.9502 8.13667 24.2395 7.642C24.5288 7.14733 24.9395 6.76467 25.4715 6.494C26.0035 6.22333 26.6195 6.088 27.3195 6.088C28.0102 6.088 28.6215 6.21867 29.1535 6.48C29.6855 6.74133 30.0962 7.11 30.3855 7.586C30.6748 8.062 30.8195 8.61267 30.8195 9.238C30.8195 9.28467 30.8008 9.32667 30.7635 9.364C30.7355 9.392 30.6982 9.406 30.6515 9.406L29.3635 9.476C29.2515 9.476 29.1955 9.42467 29.1955 9.322C29.1955 8.77133 29.0228 8.328 28.6775 7.992C28.3415 7.656 27.8888 7.488 27.3195 7.488C26.7502 7.488 26.2928 7.656 25.9475 7.992C25.6022 8.328 25.4295 8.77133 25.4295 9.322V12.892C25.4295 13.4333 25.6022 13.872 25.9475 14.208C26.2928 14.544 26.7502 14.712 27.3195 14.712C27.8888 14.712 28.3415 14.5487 28.6775 14.222C29.0228 13.886 29.1955 13.4427 29.1955 12.892C29.1955 12.7893 29.2515 12.738 29.3635 12.738L30.6515 12.794C30.6982 12.794 30.7355 12.808 30.7635 12.836C30.8008 12.864 30.8195 12.8967 30.8195 12.934C30.8195 13.5687 30.6748 14.1287 30.3855 14.614C30.0962 15.09 29.6855 15.4587 29.1535 15.72C28.6215 15.9813 28.0102 16.112 27.3195 16.112Z" fill="white"/>
<path d="M10.956 20.186C11.544 20.186 12.062 20.3073 12.51 20.55C12.958 20.7927 13.3033 21.138 13.546 21.586C13.798 22.0247 13.924 22.5333 13.924 23.112C13.924 23.6813 13.798 24.1853 13.546 24.624C13.294 25.0627 12.9347 25.4033 12.468 25.646C12.0107 25.8793 11.4787 25.996 10.872 25.996H8.632C8.58533 25.996 8.562 26.0193 8.562 26.066V29.832C8.562 29.8787 8.54333 29.9207 8.506 29.958C8.478 29.986 8.44067 30 8.394 30H7.106C7.05933 30 7.01733 29.986 6.98 29.958C6.952 29.9207 6.938 29.8787 6.938 29.832V20.354C6.938 20.3073 6.952 20.27 6.98 20.242C7.01733 20.2047 7.05933 20.186 7.106 20.186H10.956ZM10.718 24.68C11.194 24.68 11.5767 24.54 11.866 24.26C12.1553 23.98 12.3 23.6113 12.3 23.154C12.3 22.6873 12.1553 22.3093 11.866 22.02C11.5767 21.7307 11.194 21.586 10.718 21.586H8.632C8.58533 21.586 8.562 21.6093 8.562 21.656V24.61C8.562 24.6567 8.58533 24.68 8.632 24.68H10.718ZM18.6662 30.14C17.9662 30.14 17.3455 30 16.8042 29.72C16.2628 29.4307 15.8428 29.0247 15.5442 28.502C15.2548 27.9793 15.1102 27.3773 15.1102 26.696V23.504C15.1102 22.832 15.2595 22.2393 15.5582 21.726C15.8568 21.2033 16.2722 20.802 16.8042 20.522C17.3455 20.2327 17.9662 20.088 18.6662 20.088C19.3755 20.088 19.9962 20.2327 20.5282 20.522C21.0695 20.802 21.4895 21.2033 21.7882 21.726C22.0868 22.2393 22.2362 22.832 22.2362 23.504V26.696C22.2362 27.3773 22.0868 27.9793 21.7882 28.502C21.4895 29.0247 21.0695 29.4307 20.5282 29.72C19.9962 30 19.3755 30.14 18.6662 30.14ZM18.6662 28.74C19.2542 28.74 19.7255 28.558 20.0802 28.194C20.4348 27.83 20.6122 27.3493 20.6122 26.752V23.49C20.6122 22.8833 20.4348 22.398 20.0802 22.034C19.7255 21.67 19.2542 21.488 18.6662 21.488C18.0875 21.488 17.6208 21.67 17.2662 22.034C16.9115 22.398 16.7342 22.8833 16.7342 23.49V26.752C16.7342 27.3493 16.9115 27.83 17.2662 28.194C17.6208 28.558 18.0875 28.74 18.6662 28.74ZM26.4134 30C26.3201 30 26.2594 29.9533 26.2314 29.86L23.2914 20.396L23.2774 20.34C23.2774 20.2467 23.3288 20.2 23.4314 20.2H24.8174C24.9201 20.2 24.9854 20.2467 25.0134 20.34L27.1134 27.648C27.1228 27.676 27.1368 27.69 27.1554 27.69C27.1741 27.69 27.1881 27.676 27.1974 27.648L29.2834 20.34C29.3114 20.2467 29.3768 20.2 29.4794 20.2H30.8374C30.8934 20.2 30.9354 20.2187 30.9634 20.256C30.9914 20.2933 30.9961 20.34 30.9774 20.396L27.9954 29.86C27.9674 29.9533 27.9068 30 27.8134 30H26.4134Z" fill="white"/>
<defs>
<filter id="filter0_d_4317_44986" x="0" y="0" width="38" height="38" filterUnits="userSpaceOnUse" color-interpolation-filters="sRGB">
<feFlood flood-opacity="0" result="BackgroundImageFix"/>
<feColorMatrix in="SourceAlpha" type="matrix" values="0 0 0 0 0 0 0 0 0 0 0 0 0 0 0 0 0 0 127 0" result="hardAlpha"/>
<feOffset dy="1"/>
<feGaussianBlur stdDeviation="0.5"/>
<feComposite in2="hardAlpha" operator="out"/>
<feColorMatrix type="matrix" values="0 0 0 0 0 0 0 0 0 0 0 0 0 0 0 0 0 0 0.25 0"/>
<feBlend mode="normal" in2="BackgroundImageFix" result="effect1_dropShadow_4317_44986"/>
<feBlend mode="normal" in="SourceGraphic" in2="effect1_dropShadow_4317_44986" result="shape"/>
</filter>
</defs>
</svg>
