<svg xmlns="http://www.w3.org/2000/svg" width="35" height="34" viewBox="0 0 35 34" fill="none">
  <path d="M31.6565 18.511L30.4978 21.72L32.4379 24.3648L29.0802 24.4049L27.0715 27.1965L26.155 24.0125L22.9709 23.0959L25.7626 21.0873L25.8027 17.7295L28.4475 19.6697L31.6565 18.511Z" fill="#313265"/>
  <path d="M21.7969 2.20115L21.0281 4.33023L22.3153 6.085L20.0875 6.11162L18.7549 7.96378L18.1468 5.85123L16.0342 5.24315L17.8864 3.91046L17.913 1.68269L19.6678 2.96992L21.7969 2.20115Z" fill="#313265"/>
  <path d="M9.95239 7.65845L8.7937 10.8674L10.7338 13.5123L7.37609 13.5524L5.36743 16.344L4.45092 13.1599L1.26684 12.2434L4.05846 10.2348L4.09858 6.87701L6.7434 8.81714L9.95239 7.65845Z" fill="#313265"/>
  <path d="M4.42773 31.0215L22.4277 13.0215" stroke="#313265" stroke-width="4" stroke-linecap="round"/>
  <path d="M17.4277 18.0225L22.4277 13.0225" stroke="white" stroke-width="2" stroke-linecap="round"/>
</svg>