<svg width="38" height="38" viewBox="0 0 38 38" fill="none" xmlns="http://www.w3.org/2000/svg">
<g filter="url(#filter0_d_4200_46763)">
<rect x="1" width="36" height="36" rx="5" fill="#F6F8F8"/>
</g>
<path d="M18.162 27C19.212 27 20.2037 26.8333 21.137 26.5C22.0703 26.1667 22.9203 25.7 23.687 25.1C23.9037 24.9167 24.0203 24.6875 24.037 24.4125C24.0537 24.1375 23.962 23.9 23.762 23.7C23.562 23.5 23.3245 23.4 23.0495 23.4C22.7745 23.4 22.5203 23.4833 22.287 23.65C21.7037 24.0833 21.0662 24.4167 20.3745 24.65C19.6828 24.8833 18.9453 25 18.162 25C16.2287 25 14.5787 24.3167 13.212 22.95C11.8453 21.5833 11.162 19.9333 11.162 18C11.162 16.0667 11.8453 14.4167 13.212 13.05C14.5787 11.6833 16.2287 11 18.162 11C20.0953 11 21.7453 11.6833 23.112 13.05C24.4787 14.4167 25.162 16.0667 25.162 18V18.175L24.037 17.05C23.8537 16.8667 23.6245 16.775 23.3495 16.775C23.0745 16.775 22.837 16.8667 22.637 17.05C22.437 17.25 22.337 17.4875 22.337 17.7625C22.337 18.0375 22.437 18.275 22.637 18.475L25.462 21.3C25.662 21.5 25.8953 21.6 26.162 21.6C26.4287 21.6 26.662 21.5 26.862 21.3L29.712 18.45C29.912 18.25 30.0078 18.0125 29.9995 17.7375C29.9912 17.4625 29.887 17.2333 29.687 17.05C29.487 16.8667 29.2495 16.7708 28.9745 16.7625C28.6995 16.7542 28.4703 16.85 28.287 17.05L27.162 18.2V18C27.162 16.75 26.9245 15.5792 26.4495 14.4875C25.9745 13.3958 25.3328 12.4458 24.5245 11.6375C23.7162 10.8292 22.7662 10.1875 21.6745 9.7125C20.5828 9.2375 19.412 9 18.162 9C16.912 9 15.7412 9.2375 14.6495 9.7125C13.5578 10.1875 12.6078 10.8292 11.7995 11.6375C10.9912 12.4458 10.3495 13.3958 9.8745 14.4875C9.3995 15.5792 9.162 16.75 9.162 18C9.162 20.5 10.037 22.625 11.787 24.375C13.537 26.125 15.662 27 18.162 27Z" fill="#313265"/>
<defs>
<filter id="filter0_d_4200_46763" x="0" y="0" width="38" height="38" filterUnits="userSpaceOnUse" color-interpolation-filters="sRGB">
<feFlood flood-opacity="0" result="BackgroundImageFix"/>
<feColorMatrix in="SourceAlpha" type="matrix" values="0 0 0 0 0 0 0 0 0 0 0 0 0 0 0 0 0 0 127 0" result="hardAlpha"/>
<feOffset dy="1"/>
<feGaussianBlur stdDeviation="0.5"/>
<feComposite in2="hardAlpha" operator="out"/>
<feColorMatrix type="matrix" values="0 0 0 0 0 0 0 0 0 0 0 0 0 0 0 0 0 0 0.25 0"/>
<feBlend mode="normal" in2="BackgroundImageFix" result="effect1_dropShadow_4200_46763"/>
<feBlend mode="normal" in="SourceGraphic" in2="effect1_dropShadow_4200_46763" result="shape"/>
</filter>
</defs>
</svg>
