<svg width="38" height="38" viewBox="0 0 38 38" fill="none" xmlns="http://www.w3.org/2000/svg">
<g filter="url(#filter0_d_3945_184)">
<rect x="1" width="36" height="36" rx="5" fill="#F6F8F8"/>
</g>
<path d="M15.1 20.75C15.3333 21.55 15.6958 22.1958 16.1875 22.6875C16.6792 23.1792 17.3167 23.5167 18.1 23.7V24.125C18.1 24.3583 18.1875 24.5625 18.3625 24.7375C18.5375 24.9125 18.7417 25 18.975 25C19.2083 25 19.4125 24.9125 19.5875 24.7375C19.7625 24.5625 19.85 24.3583 19.85 24.125V23.75C20.6833 23.6 21.4 23.275 22 22.775C22.6 22.275 22.9 21.5333 22.9 20.55C22.9 19.85 22.7 19.2083 22.3 18.625C21.9 18.0417 21.1 17.5333 19.9 17.1C18.9 16.7667 18.2083 16.475 17.825 16.225C17.4417 15.975 17.25 15.6333 17.25 15.2C17.25 14.7667 17.4042 14.425 17.7125 14.175C18.0208 13.925 18.4667 13.8 19.05 13.8C19.5833 13.8 20 13.9292 20.3 14.1875C20.6 14.4458 20.8167 14.7667 20.95 15.15L22.55 14.5C22.3667 13.9167 22.0292 13.4083 21.5375 12.975C21.0458 12.5417 20.5 12.3 19.9 12.25V11.875C19.9 11.6417 19.8125 11.4375 19.6375 11.2625C19.4625 11.0875 19.2583 11 19.025 11C18.7917 11 18.5875 11.0875 18.4125 11.2625C18.2375 11.4375 18.15 11.6417 18.15 11.875V12.25C17.3167 12.4333 16.6667 12.8 16.2 13.35C15.7333 13.9 15.5 14.5167 15.5 15.2C15.5 15.9833 15.7292 16.6167 16.1875 17.1C16.6458 17.5833 17.3667 18 18.35 18.35C19.4 18.7333 20.1292 19.075 20.5375 19.375C20.9458 19.675 21.15 20.0667 21.15 20.55C21.15 21.1 20.9542 21.5042 20.5625 21.7625C20.1708 22.0208 19.7 22.15 19.15 22.15C18.6 22.15 18.1125 21.9792 17.6875 21.6375C17.2625 21.2958 16.95 20.7833 16.75 20.1L15.1 20.75ZM19 28C17.6167 28 16.3167 27.7375 15.1 27.2125C13.8833 26.6875 12.825 25.975 11.925 25.075C11.025 24.175 10.3125 23.1167 9.7875 21.9C9.2625 20.6833 9 19.3833 9 18C9 16.6167 9.2625 15.3167 9.7875 14.1C10.3125 12.8833 11.025 11.825 11.925 10.925C12.825 10.025 13.8833 9.3125 15.1 8.7875C16.3167 8.2625 17.6167 8 19 8C20.3833 8 21.6833 8.2625 22.9 8.7875C24.1167 9.3125 25.175 10.025 26.075 10.925C26.975 11.825 27.6875 12.8833 28.2125 14.1C28.7375 15.3167 29 16.6167 29 18C29 19.3833 28.7375 20.6833 28.2125 21.9C27.6875 23.1167 26.975 24.175 26.075 25.075C25.175 25.975 24.1167 26.6875 22.9 27.2125C21.6833 27.7375 20.3833 28 19 28ZM19 26C21.2333 26 23.125 25.225 24.675 23.675C26.225 22.125 27 20.2333 27 18C27 15.7667 26.225 13.875 24.675 12.325C23.125 10.775 21.2333 10 19 10C16.7667 10 14.875 10.775 13.325 12.325C11.775 13.875 11 15.7667 11 18C11 20.2333 11.775 22.125 13.325 23.675C14.875 25.225 16.7667 26 19 26Z" fill="#313265"/>
<defs>
<filter id="filter0_d_3945_184" x="0" y="0" width="38" height="38" filterUnits="userSpaceOnUse" color-interpolation-filters="sRGB">
<feFlood flood-opacity="0" result="BackgroundImageFix"/>
<feColorMatrix in="SourceAlpha" type="matrix" values="0 0 0 0 0 0 0 0 0 0 0 0 0 0 0 0 0 0 127 0" result="hardAlpha"/>
<feOffset dy="1"/>
<feGaussianBlur stdDeviation="0.5"/>
<feComposite in2="hardAlpha" operator="out"/>
<feColorMatrix type="matrix" values="0 0 0 0 0 0 0 0 0 0 0 0 0 0 0 0 0 0 0.25 0"/>
<feBlend mode="normal" in2="BackgroundImageFix" result="effect1_dropShadow_3945_184"/>
<feBlend mode="normal" in="SourceGraphic" in2="effect1_dropShadow_3945_184" result="shape"/>
</filter>
</defs>
</svg>
