<svg width="38" height="38" viewBox="0 0 38 38" fill="none" xmlns="http://www.w3.org/2000/svg">
<g filter="url(#filter0_d_3945_196)">
<rect x="1" width="36" height="36" rx="5" fill="#F6F8F8"/>
</g>
<path d="M8 23.2C8 22.6333 8.14583 22.1125 8.4375 21.6375C8.72917 21.1625 9.11667 20.8 9.6 20.55C10.6333 20.0333 11.6833 19.6458 12.75 19.3875C13.8167 19.1292 14.9 19 16 19C17.1 19 18.1833 19.1292 19.25 19.3875C20.3167 19.6458 21.3667 20.0333 22.4 20.55C22.8833 20.8 23.2708 21.1625 23.5625 21.6375C23.8542 22.1125 24 22.6333 24 23.2V24C24 24.55 23.8042 25.0208 23.4125 25.4125C23.0208 25.8042 22.55 26 22 26H10C9.45 26 8.97917 25.8042 8.5875 25.4125C8.19583 25.0208 8 24.55 8 24V23.2ZM28 26H25.45C25.6333 25.7 25.7708 25.3792 25.8625 25.0375C25.9542 24.6958 26 24.35 26 24V23C26 22.2667 25.7958 21.5625 25.3875 20.8875C24.9792 20.2125 24.4 19.6333 23.65 19.15C24.5 19.25 25.3 19.4208 26.05 19.6625C26.8 19.9042 27.5 20.2 28.15 20.55C28.75 20.8833 29.2083 21.2542 29.525 21.6625C29.8417 22.0708 30 22.5167 30 23V24C30 24.55 29.8042 25.0208 29.4125 25.4125C29.0208 25.8042 28.55 26 28 26ZM16 18C14.9 18 13.9583 17.6083 13.175 16.825C12.3917 16.0417 12 15.1 12 14C12 12.9 12.3917 11.9583 13.175 11.175C13.9583 10.3917 14.9 10 16 10C17.1 10 18.0417 10.3917 18.825 11.175C19.6083 11.9583 20 12.9 20 14C20 15.1 19.6083 16.0417 18.825 16.825C18.0417 17.6083 17.1 18 16 18ZM26 14C26 15.1 25.6083 16.0417 24.825 16.825C24.0417 17.6083 23.1 18 22 18C21.8167 18 21.5833 17.9792 21.3 17.9375C21.0167 17.8958 20.7833 17.85 20.6 17.8C21.05 17.2667 21.3958 16.675 21.6375 16.025C21.8792 15.375 22 14.7 22 14C22 13.3 21.8792 12.625 21.6375 11.975C21.3958 11.325 21.05 10.7333 20.6 10.2C20.8333 10.1167 21.0667 10.0625 21.3 10.0375C21.5333 10.0125 21.7667 10 22 10C23.1 10 24.0417 10.3917 24.825 11.175C25.6083 11.9583 26 12.9 26 14ZM10 24H22V23.2C22 23.0167 21.9542 22.85 21.8625 22.7C21.7708 22.55 21.65 22.4333 21.5 22.35C20.6 21.9 19.6917 21.5625 18.775 21.3375C17.8583 21.1125 16.9333 21 16 21C15.0667 21 14.1417 21.1125 13.225 21.3375C12.3083 21.5625 11.4 21.9 10.5 22.35C10.35 22.4333 10.2292 22.55 10.1375 22.7C10.0458 22.85 10 23.0167 10 23.2V24ZM16 16C16.55 16 17.0208 15.8042 17.4125 15.4125C17.8042 15.0208 18 14.55 18 14C18 13.45 17.8042 12.9792 17.4125 12.5875C17.0208 12.1958 16.55 12 16 12C15.45 12 14.9792 12.1958 14.5875 12.5875C14.1958 12.9792 14 13.45 14 14C14 14.55 14.1958 15.0208 14.5875 15.4125C14.9792 15.8042 15.45 16 16 16Z" fill="#313265"/>
<defs>
<filter id="filter0_d_3945_196" x="0" y="0" width="38" height="38" filterUnits="userSpaceOnUse" color-interpolation-filters="sRGB">
<feFlood flood-opacity="0" result="BackgroundImageFix"/>
<feColorMatrix in="SourceAlpha" type="matrix" values="0 0 0 0 0 0 0 0 0 0 0 0 0 0 0 0 0 0 127 0" result="hardAlpha"/>
<feOffset dy="1"/>
<feGaussianBlur stdDeviation="0.5"/>
<feComposite in2="hardAlpha" operator="out"/>
<feColorMatrix type="matrix" values="0 0 0 0 0 0 0 0 0 0 0 0 0 0 0 0 0 0 0.25 0"/>
<feBlend mode="normal" in2="BackgroundImageFix" result="effect1_dropShadow_3945_196"/>
<feBlend mode="normal" in="SourceGraphic" in2="effect1_dropShadow_3945_196" result="shape"/>
</filter>
</defs>
</svg>
