<svg xmlns="http://www.w3.org/2000/svg" width="38" height="38" viewBox="0 0 38 38" fill="none">
  <g filter="url(#filter0_d_2_49)">
    <rect x="1" width="36" height="36" rx="5" fill="#F46F22"/>
  </g>
  <path d="M27 27V25C27 23.9391 26.5786 22.9217 25.8284 22.1716C25.0783 21.4214 24.0609 21 23 21H15C13.9391 21 12.9217 21.4214 12.1716 22.1716C11.4214 22.9217 11 23.9391 11 25V27" stroke="white" stroke-width="2" stroke-linecap="round" stroke-linejoin="round"/>
  <path d="M19 17C21.2091 17 23 15.2091 23 13C23 10.7909 21.2091 9 19 9C16.7909 9 15 10.7909 15 13C15 15.2091 16.7909 17 19 17Z" stroke="white" stroke-width="2" stroke-linecap="round" stroke-linejoin="round"/>
  <defs>
    <filter id="filter0_d_2_49" x="0" y="0" width="38" height="38" filterUnits="userSpaceOnUse" color-interpolation-filters="sRGB">
      <feFlood flood-opacity="0" result="BackgroundImageFix"/>
      <feColorMatrix in="SourceAlpha" type="matrix" values="0 0 0 0 0 0 0 0 0 0 0 0 0 0 0 0 0 0 127 0" result="hardAlpha"/>
      <feOffset dy="1"/>
      <feGaussianBlur stdDeviation="0.5"/>
      <feComposite in2="hardAlpha" operator="out"/>
      <feColorMatrix type="matrix" values="0 0 0 0 0 0 0 0 0 0 0 0 0 0 0 0 0 0 0.25 0"/>
      <feBlend mode="normal" in2="BackgroundImageFix" result="effect1_dropShadow_2_49"/>
      <feBlend mode="normal" in="SourceGraphic" in2="effect1_dropShadow_2_49" result="shape"/>
    </filter>
  </defs>
</svg>