<svg xmlns="http://www.w3.org/2000/svg" width="16" height="14" viewBox="0 0 16 14" fill="none">
  <path d="M6.69066 1.28083L0.205221 11.2789C0.071506 11.4927 0.000754715 11.7351 6.00468e-06 11.9821C-0.000742706 12.229 0.0685372 12.4718 0.200953 12.6863C0.333369 12.9008 0.524306 13.0796 0.754766 13.2048C0.985227 13.3301 1.24718 13.3974 1.51456 13.4001H14.4854C14.7528 13.3974 15.0148 13.3301 15.2452 13.2048C15.4757 13.0796 15.6666 12.9008 15.799 12.6863C15.9315 12.4718 16.0007 12.229 16 11.9821C15.9992 11.7351 15.9285 11.4927 15.7948 11.2789L9.30934 1.28083C9.17284 1.07303 8.98064 0.901215 8.7513 0.781977C8.52195 0.662739 8.2632 0.600098 8 0.600098C7.7368 0.600098 7.47805 0.662739 7.2487 0.781977C7.01936 0.901215 6.82716 1.07303 6.69066 1.28083Z" fill="#E1AF00"/>
  <path d="M8 4.91504V7.74334" stroke="white" stroke-width="2" stroke-linecap="round" stroke-linejoin="round"/>
  <path d="M8 10.5718H8.008" stroke="white" stroke-width="2" stroke-linecap="round" stroke-linejoin="round"/>
</svg>